<svg width="800" height="684" viewBox="0 0 800 684" fill="none" xmlns="http://www.w3.org/2000/svg">
<path fill-rule="evenodd" clip-rule="evenodd" d="M705.2 332.436L399.883 618.836L95.2233 333.095C30.8 267.73 30.8 161.377 95.2233 96.0127C126.282 64.5302 167.6 47.1656 211.6 47.1656H211.647C255.6 47.1656 296.918 64.5302 327.93 96.0127L327.977 96.0598C359.13 127.636 376.353 169.754 376.353 214.554H423.412C423.412 169.754 440.588 127.636 471.788 96.0127C502.8 64.5302 544.117 47.1656 588.117 47.1656H588.165C632.117 47.1656 673.482 64.5302 704.494 96.0127C768.917 161.377 768.917 267.73 705.2 332.436ZM738.047 62.9773C698.094 22.4127 644.823 0.106445 588.165 0.106445H588.117C531.412 0.106445 478.188 22.4127 438.282 62.9302C422.612 78.7889 409.765 96.6714 399.883 116.013C390 96.671 377.106 78.789 361.482 62.9773C321.577 22.4127 268.353 0.106445 211.647 0.106445H211.6C154.941 0.106445 101.671 22.4127 61.6708 62.9773C-20.6825 146.601 -20.6825 282.554 62.3767 366.742L399.883 683.353L738.047 366.083C820.4 282.554 820.4 146.601 738.047 62.9773Z" fill="black"/>
</svg>
