<svg width="668" height="668" viewBox="0 0 668 668" fill="none" xmlns="http://www.w3.org/2000/svg">
<path d="M667.334 334C667.334 150.334 517.667 0.666992 334 0.666992C150.334 0.666992 0.666992 150.334 0.666992 334C0.666992 430.667 42.3337 517.667 108.334 578.667C108.334 579 108.334 579 108 579.334C111.334 582.667 115.334 585.334 118.667 588.334C120.667 590 122.334 591.667 124.334 593C130.334 598 137 602.667 143.334 607.334C145.667 609 147.667 610.334 150 612C156.334 616.334 163 620.334 170 624C172.334 625.334 175 627 177.334 628.334C184 632 191 635.334 198.334 638.334C201 639.667 203.667 641 206.334 642C213.667 645 221 647.667 228.334 650C231 651 233.667 652 236.334 652.667C244.334 655 252.334 657 260.334 659C262.667 659.667 265 660.334 267.667 660.667C277 662.667 286.334 664 296 665C297.334 665 298.667 665.334 300 665.667C311.334 666.667 322.667 667.334 334 667.334C345.334 667.334 356.667 666.667 367.667 665.667C369 665.667 370.334 665.334 371.667 665C381.334 664 390.667 662.667 400 660.667C402.334 660.334 404.667 659.334 407.334 659C415.334 657 423.667 655.334 431.334 652.667C434 651.667 436.667 650.667 439.334 650C446.667 647.334 454.334 645 461.334 642C464 641 466.667 639.667 469.334 638.334C476.334 635.334 483.334 632 490.334 628.334C493 627 495.334 625.334 497.667 624C504.334 620 511 616.334 517.667 612C520 610.667 522 609 524.334 607.334C531 602.667 537.334 598 543.334 593C545.334 591.334 547 589.667 549 588.334C552.667 585.334 556.334 582.334 559.667 579.334C559.667 579 559.667 579 559.334 578.667C625.667 517.667 667.334 430.667 667.334 334ZM498.667 499.667C408.334 439 260.334 439 169.334 499.667C154.667 509.334 142.667 520.667 132.667 533C82.0003 481.667 50.667 411.334 50.667 334C50.667 177.667 177.667 50.667 334 50.667C490.334 50.667 617.334 177.667 617.334 334C617.334 411.334 586 481.667 535.334 533C525.667 520.667 513.334 509.334 498.667 499.667Z" fill="black"/>
<path d="M334 164.989C265 164.989 209 220.989 209 289.99C209 357.656 262 412.656 332.333 414.656C333.333 414.656 334.667 414.656 335.333 414.656C336 414.656 337 414.656 337.667 414.656C338 414.656 338.333 414.656 338.333 414.656C405.667 412.323 458.667 357.656 459 289.99C459 220.989 403 164.989 334 164.989Z" fill="black"/>
</svg>
