<svg width="599" height="600" viewBox="0 0 599 600" fill="none" xmlns="http://www.w3.org/2000/svg">
<path fill-rule="evenodd" clip-rule="evenodd" d="M399.25 450.775C356.913 482.112 488.563 347.487 451.1 398.662C452.038 398.587 450.3 401.425 444.475 408.537C444.475 408.537 544.525 507.912 593.638 558.487C610.688 576.925 579.925 613.725 559.025 594.512C514.55 551.362 409.313 444.125 409.15 443.95L399.25 450.775Z" fill="#C4C4C4"/>
<path d="M252.238 501.025C316.613 500.4 380.338 473.738 426.163 428.45C480.588 374.663 508.613 295.088 498.838 219.113C482.088 88.9252 375.063 0.575195 250.638 0.575195C156.1 0.575195 64.2251 59.7127 23.9251 145.463C-6.9249 211.113 -6.9874 290.375 23.9251 356.138C63.9376 441.288 154.313 500.113 249.025 501.025C250.1 501.025 251.175 501.025 252.238 501.025ZM249.288 459.313C153.15 458.388 63.4501 384.038 45.6126 288.713C33.0376 221.513 56.7751 148.788 106.225 101.063C163.95 45.3252 254.688 26.6627 330.138 58.2502C397.638 86.5127 448.163 152.138 457.475 224.438C465.45 286.413 443.213 351.363 399.513 396.1C361.175 435.35 307.413 458.775 251.975 459.313C251.075 459.313 250.188 459.313 249.288 459.313Z" fill="#C4C4C4"/>
</svg>
